<mxfile host="Electron" agent="Mozilla/5.0 (Windows NT 10.0; Win64; x64) AppleWebKit/537.36 (KHTML, like Gecko) draw.io/24.7.17 Chrome/128.0.6613.36 Electron/32.0.1 Safari/537.36" version="24.7.17">
  <diagram name="Page-1" id="H2YJt5V8o-H7i_xh--k0">
    <mxGraphModel dx="3406" dy="1286" grid="1" gridSize="10" guides="1" tooltips="1" connect="1" arrows="1" fold="1" page="0" pageScale="1" pageWidth="850" pageHeight="1100" math="0" shadow="0">
      <root>
        <mxCell id="0" />
        <mxCell id="1" parent="0" />
        <mxCell id="GWZe_AKXVVsgh4Q6ZviH-2" value="" style="edgeStyle=elbowEdgeStyle;html=1;elbow=vertical;verticalAlign=bottom;endArrow=none;rounded=0;labelBackgroundColor=none;endSize=12;endFill=0;entryX=0.015;entryY=0.498;entryDx=0;entryDy=0;entryPerimeter=0;" parent="1" target="GWZe_AKXVVsgh4Q6ZviH-1" edge="1">
          <mxGeometry x="0.9805" y="104" relative="1" as="geometry">
            <mxPoint x="-425" y="163" as="targetPoint" />
            <mxPoint x="-469" y="163" as="sourcePoint" />
            <mxPoint x="-14" y="-52" as="offset" />
            <Array as="points">
              <mxPoint x="-449" y="162" />
            </Array>
          </mxGeometry>
        </mxCell>
        <mxCell id="c17SYyF0Zs9dSF2ZK7In-27" value="" style="edgeStyle=elbowEdgeStyle;html=1;elbow=horizontal;verticalAlign=bottom;endArrow=none;rounded=0;labelBackgroundColor=none;endSize=12;endFill=0;" parent="1" edge="1">
          <mxGeometry x="-0.3363" y="2" relative="1" as="geometry">
            <mxPoint x="-145.42000000000002" y="278" as="targetPoint" />
            <mxPoint x="-145.34" y="350" as="sourcePoint" />
            <mxPoint as="offset" />
            <Array as="points" />
          </mxGeometry>
        </mxCell>
        <mxCell id="c17SYyF0Zs9dSF2ZK7In-15" value="" style="endArrow=none;html=1;rounded=0;" parent="1" edge="1">
          <mxGeometry width="50" height="50" relative="1" as="geometry">
            <mxPoint x="-815.26" y="180.5" as="sourcePoint" />
            <mxPoint x="-815.26" y="245.5" as="targetPoint" />
            <Array as="points">
              <mxPoint x="-815.76" y="245" />
            </Array>
          </mxGeometry>
        </mxCell>
        <mxCell id="c17SYyF0Zs9dSF2ZK7In-10" value="" style="edgeStyle=elbowEdgeStyle;html=1;elbow=horizontal;align=right;verticalAlign=bottom;endArrow=none;rounded=0;labelBackgroundColor=none;startArrow=none;startSize=12;startFill=0;entryX=1;entryY=0.5;entryDx=0;entryDy=0;" parent="1" edge="1">
          <mxGeometry relative="1" as="geometry">
            <mxPoint x="-505" y="339.5" as="targetPoint" />
            <mxPoint x="-309" y="278" as="sourcePoint" />
            <Array as="points">
              <mxPoint x="-309" y="361.5" />
            </Array>
          </mxGeometry>
        </mxCell>
        <mxCell id="bY9uumYXsHetjOn1w0_e-433" value="" style="endArrow=classic;html=1;rounded=0;entryX=0.254;entryY=0.342;entryDx=0;entryDy=0;entryPerimeter=0;" parent="1" edge="1">
          <mxGeometry width="50" height="50" relative="1" as="geometry">
            <mxPoint x="-894" y="161" as="sourcePoint" />
            <mxPoint x="-829.9960000000001" y="160.83000000000007" as="targetPoint" />
          </mxGeometry>
        </mxCell>
        <mxCell id="bY9uumYXsHetjOn1w0_e-1" value="" style="ellipse;whiteSpace=wrap;html=1;aspect=fixed;strokeColor=default;fillColor=#000000;" parent="1" vertex="1">
          <mxGeometry x="-924" y="146" width="30" height="30" as="geometry" />
        </mxCell>
        <mxCell id="bY9uumYXsHetjOn1w0_e-440" value="&lt;font style=&quot;font-size: 11px;&quot;&gt;Secure&lt;/font&gt;&lt;div style=&quot;font-size: 11px;&quot;&gt;&lt;font style=&quot;font-size: 11px;&quot;&gt;Login and Logout&lt;/font&gt;&lt;/div&gt;" style="rounded=1;whiteSpace=wrap;html=1;arcSize=32;" parent="1" vertex="1">
          <mxGeometry x="-589" y="143" width="120" height="38" as="geometry" />
        </mxCell>
        <mxCell id="bY9uumYXsHetjOn1w0_e-443" value="" style="edgeStyle=elbowEdgeStyle;html=1;elbow=horizontal;verticalAlign=bottom;endArrow=open;rounded=0;labelBackgroundColor=none;endSize=9;endFill=0;" parent="1" edge="1">
          <mxGeometry x="-0.2861" y="2" relative="1" as="geometry">
            <mxPoint x="-160" y="260" as="targetPoint" />
            <mxPoint x="-220" y="260" as="sourcePoint" />
            <mxPoint as="offset" />
          </mxGeometry>
        </mxCell>
        <mxCell id="bY9uumYXsHetjOn1w0_e-455" value="&lt;font style=&quot;font-size: 7px;&quot;&gt;[Home page]&lt;/font&gt;" style="edgeStyle=elbowEdgeStyle;html=1;elbow=horizontal;verticalAlign=bottom;endArrow=open;rounded=0;labelBackgroundColor=none;endSize=9;endFill=0;exitX=1;exitY=0.5;exitDx=0;exitDy=0;" parent="1" source="bY9uumYXsHetjOn1w0_e-453" edge="1">
          <mxGeometry x="-0.2105" relative="1" as="geometry">
            <mxPoint x="-54" y="260" as="targetPoint" />
            <mxPoint x="-124" y="260" as="sourcePoint" />
            <mxPoint as="offset" />
          </mxGeometry>
        </mxCell>
        <mxCell id="bY9uumYXsHetjOn1w0_e-456" value="&lt;font style=&quot;font-size: 7px;&quot;&gt;[Forget password ?]&lt;/font&gt;" style="text;html=1;align=center;verticalAlign=middle;whiteSpace=wrap;rounded=0;" parent="1" vertex="1">
          <mxGeometry x="-392" y="243" width="73" height="12" as="geometry" />
        </mxCell>
        <mxCell id="bY9uumYXsHetjOn1w0_e-463" value="" style="endArrow=none;html=1;rounded=0;exitX=0.492;exitY=0.054;exitDx=0;exitDy=0;exitPerimeter=0;endFill=0;startArrow=open;startFill=0;startSize=10;" parent="1" source="c17SYyF0Zs9dSF2ZK7In-5" edge="1">
          <mxGeometry width="50" height="50" relative="1" as="geometry">
            <mxPoint x="-309.22" y="237.5" as="sourcePoint" />
            <mxPoint x="-308.79" y="180" as="targetPoint" />
            <Array as="points" />
          </mxGeometry>
        </mxCell>
        <mxCell id="bY9uumYXsHetjOn1w0_e-445" value="&lt;font style=&quot;font-size: 11px;&quot;&gt;Profile Management&lt;/font&gt;" style="rounded=1;whiteSpace=wrap;html=1;arcSize=11;" parent="1" vertex="1">
          <mxGeometry x="-216" y="348.53" width="114" height="36" as="geometry" />
        </mxCell>
        <mxCell id="bY9uumYXsHetjOn1w0_e-468" value="" style="edgeStyle=elbowEdgeStyle;html=1;elbow=vertical;verticalAlign=bottom;endArrow=open;rounded=0;labelBackgroundColor=none;endSize=9;" parent="1" edge="1">
          <mxGeometry x="-0.1442" relative="1" as="geometry">
            <mxPoint x="20" y="260" as="targetPoint" />
            <mxPoint x="-24" y="261.22" as="sourcePoint" />
            <mxPoint as="offset" />
          </mxGeometry>
        </mxCell>
        <mxCell id="bY9uumYXsHetjOn1w0_e-469" value="&lt;font style=&quot;font-size: 8px;&quot;&gt;[found product]&lt;/font&gt;" style="text;html=1;align=center;verticalAlign=middle;resizable=1;points=[];autosize=1;strokeColor=none;fillColor=none;movable=1;rotatable=1;deletable=1;editable=1;locked=0;connectable=1;" parent="1" vertex="1">
          <mxGeometry x="80" y="418" width="58" height="19.47" as="geometry" />
        </mxCell>
        <mxCell id="bY9uumYXsHetjOn1w0_e-470" value="" style="edgeStyle=elbowEdgeStyle;html=1;elbow=horizontal;align=right;verticalAlign=bottom;endArrow=none;rounded=0;labelBackgroundColor=none;startArrow=none;startSize=12;startFill=0;entryX=1;entryY=0.5;entryDx=0;entryDy=0;" parent="1" target="c17SYyF0Zs9dSF2ZK7In-69" edge="1">
          <mxGeometry relative="1" as="geometry">
            <mxPoint x="929" y="680" as="targetPoint" />
            <mxPoint x="-145" y="80" as="sourcePoint" />
            <Array as="points">
              <mxPoint x="879" y="310" />
            </Array>
          </mxGeometry>
        </mxCell>
        <mxCell id="bY9uumYXsHetjOn1w0_e-472" value="&lt;font style=&quot;font-size: 8px;&quot;&gt;[not found]&lt;/font&gt;" style="text;html=1;align=center;verticalAlign=middle;resizable=0;points=[];autosize=1;strokeColor=none;fillColor=none;" parent="1" vertex="1">
          <mxGeometry x="2" y="412.73" width="60" height="30" as="geometry" />
        </mxCell>
        <mxCell id="bY9uumYXsHetjOn1w0_e-476" value="" style="endArrow=none;html=1;rounded=0;entryX=0.5;entryY=0;entryDx=0;entryDy=0;" parent="1" target="bY9uumYXsHetjOn1w0_e-486" edge="1">
          <mxGeometry width="50" height="50" relative="1" as="geometry">
            <mxPoint x="-40.09" y="243.99999999999994" as="sourcePoint" />
            <mxPoint x="310" y="410" as="targetPoint" />
            <Array as="points">
              <mxPoint x="-40" y="160" />
              <mxPoint x="130" y="160" />
              <mxPoint x="310" y="160" />
            </Array>
          </mxGeometry>
        </mxCell>
        <mxCell id="bY9uumYXsHetjOn1w0_e-477" value="" style="shape=rhombus;html=1;verticalLabelPosition=bottom;verticalAlignment=top;" parent="1" vertex="1">
          <mxGeometry x="54" y="419.47" width="30" height="38" as="geometry" />
        </mxCell>
        <mxCell id="bY9uumYXsHetjOn1w0_e-478" value="" style="edgeStyle=elbowEdgeStyle;html=1;elbow=vertical;verticalAlign=bottom;endArrow=open;rounded=0;labelBackgroundColor=none;endSize=12;entryX=0;entryY=0.5;entryDx=0;entryDy=0;" parent="1" edge="1">
          <mxGeometry x="-0.1442" relative="1" as="geometry">
            <mxPoint x="154" y="438.47" as="targetPoint" />
            <mxPoint x="84" y="438.18000000000006" as="sourcePoint" />
            <mxPoint as="offset" />
          </mxGeometry>
        </mxCell>
        <mxCell id="bY9uumYXsHetjOn1w0_e-479" value="View Product&lt;div&gt;Details&lt;/div&gt;" style="rounded=1;whiteSpace=wrap;html=1;arcSize=32;" parent="1" vertex="1">
          <mxGeometry x="154" y="414.5" width="90" height="50" as="geometry" />
        </mxCell>
        <mxCell id="bY9uumYXsHetjOn1w0_e-486" value="" style="shape=rhombus;html=1;verticalLabelPosition=bottom;verticalAlignment=top;" parent="1" vertex="1">
          <mxGeometry x="294" y="420.5" width="30" height="38" as="geometry" />
        </mxCell>
        <mxCell id="bY9uumYXsHetjOn1w0_e-487" value="" style="edgeStyle=elbowEdgeStyle;html=1;elbow=vertical;verticalAlign=bottom;endArrow=open;rounded=0;labelBackgroundColor=none;endSize=12;entryX=0;entryY=0.5;entryDx=0;entryDy=0;" parent="1" target="bY9uumYXsHetjOn1w0_e-486" edge="1">
          <mxGeometry x="-0.1442" relative="1" as="geometry">
            <mxPoint x="314" y="439.54" as="targetPoint" />
            <mxPoint x="244" y="439.25000000000006" as="sourcePoint" />
            <mxPoint as="offset" />
          </mxGeometry>
        </mxCell>
        <mxCell id="bY9uumYXsHetjOn1w0_e-488" value="&lt;font style=&quot;font-size: 9px;&quot;&gt;[made d&lt;span style=&quot;background-color: initial;&quot;&gt;ecision]&lt;/span&gt;&lt;/font&gt;" style="text;html=1;align=center;verticalAlign=middle;resizable=0;points=[];autosize=1;strokeColor=none;fillColor=none;strokeWidth=2;" parent="1" vertex="1">
          <mxGeometry x="311" y="414.5" width="90" height="30" as="geometry" />
        </mxCell>
        <mxCell id="bY9uumYXsHetjOn1w0_e-489" value="" style="edgeStyle=elbowEdgeStyle;html=1;elbow=vertical;verticalAlign=bottom;endArrow=open;rounded=0;labelBackgroundColor=none;endSize=12;entryX=0.395;entryY=-0.031;entryDx=0;entryDy=0;entryPerimeter=0;" parent="1" edge="1">
          <mxGeometry x="-0.1442" relative="1" as="geometry">
            <mxPoint x="401.5500000000002" y="497.95000000000005" as="targetPoint" />
            <mxPoint x="384" y="439.5" as="sourcePoint" />
            <mxPoint as="offset" />
            <Array as="points">
              <mxPoint x="426" y="439.5" />
            </Array>
          </mxGeometry>
        </mxCell>
        <mxCell id="bY9uumYXsHetjOn1w0_e-490" value="&lt;div style=&quot;font-size: 11px;&quot;&gt;&lt;font style=&quot;font-size: 11px;&quot;&gt;Shopping Cart&lt;/font&gt;&lt;/div&gt;" style="rounded=1;whiteSpace=wrap;html=1;arcSize=8;" parent="1" vertex="1">
          <mxGeometry x="356" y="498" width="90" height="28" as="geometry" />
        </mxCell>
        <mxCell id="bY9uumYXsHetjOn1w0_e-492" value="" style="endArrow=none;html=1;rounded=0;" parent="1" edge="1">
          <mxGeometry width="50" height="50" relative="1" as="geometry">
            <mxPoint x="324" y="439.58000000000004" as="sourcePoint" />
            <mxPoint x="384" y="439.5" as="targetPoint" />
          </mxGeometry>
        </mxCell>
        <mxCell id="bY9uumYXsHetjOn1w0_e-494" value="" style="edgeStyle=elbowEdgeStyle;html=1;elbow=vertical;verticalAlign=bottom;endArrow=open;rounded=0;labelBackgroundColor=none;endSize=12;entryX=0;entryY=0.5;entryDx=0;entryDy=0;exitX=0.5;exitY=1;exitDx=0;exitDy=0;" parent="1" source="bY9uumYXsHetjOn1w0_e-490" edge="1">
          <mxGeometry x="-0.1442" relative="1" as="geometry">
            <mxPoint x="400.5799999999999" y="599.79" as="targetPoint" />
            <mxPoint x="400.5799999999999" y="549.5" as="sourcePoint" />
            <mxPoint as="offset" />
          </mxGeometry>
        </mxCell>
        <mxCell id="bY9uumYXsHetjOn1w0_e-496" value="" style="edgeStyle=elbowEdgeStyle;html=1;elbow=vertical;verticalAlign=bottom;endArrow=open;rounded=0;labelBackgroundColor=none;endSize=12;" parent="1" edge="1">
          <mxGeometry x="-0.1442" relative="1" as="geometry">
            <mxPoint x="416" y="619.71" as="targetPoint" />
            <mxPoint x="514" y="619.5" as="sourcePoint" />
            <mxPoint as="offset" />
            <Array as="points">
              <mxPoint x="494" y="620.5" />
            </Array>
          </mxGeometry>
        </mxCell>
        <mxCell id="bY9uumYXsHetjOn1w0_e-497" value="" style="endArrow=none;html=1;rounded=0;entryX=0.5;entryY=0;entryDx=0;entryDy=0;" parent="1" target="bY9uumYXsHetjOn1w0_e-500" edge="1">
          <mxGeometry width="50" height="50" relative="1" as="geometry">
            <mxPoint x="514" y="620.5" as="sourcePoint" />
            <mxPoint x="474" y="662.5" as="targetPoint" />
          </mxGeometry>
        </mxCell>
        <mxCell id="bY9uumYXsHetjOn1w0_e-498" value="" style="edgeStyle=elbowEdgeStyle;html=1;elbow=vertical;verticalAlign=bottom;endArrow=open;rounded=0;labelBackgroundColor=none;endSize=12;exitX=0.877;exitY=0.956;exitDx=0;exitDy=0;exitPerimeter=0;" parent="1" source="bY9uumYXsHetjOn1w0_e-499" edge="1">
          <mxGeometry x="-0.1442" relative="1" as="geometry">
            <mxPoint x="284" y="719.5" as="targetPoint" />
            <mxPoint x="366" y="618.5" as="sourcePoint" />
            <mxPoint as="offset" />
            <Array as="points">
              <mxPoint x="286" y="618.5" />
            </Array>
          </mxGeometry>
        </mxCell>
        <mxCell id="bY9uumYXsHetjOn1w0_e-499" value="&lt;font style=&quot;font-size: 9px;&quot;&gt;Proceed&lt;/font&gt;" style="text;html=1;align=center;verticalAlign=middle;resizable=0;points=[];autosize=1;strokeColor=none;fillColor=none;strokeWidth=2;" parent="1" vertex="1">
          <mxGeometry x="336" y="592.5" width="60" height="30" as="geometry" />
        </mxCell>
        <mxCell id="bY9uumYXsHetjOn1w0_e-500" value="&lt;font style=&quot;font-size: 12px;&quot;&gt;Update&lt;/font&gt;&lt;span style=&quot;background-color: initial;&quot;&gt;&amp;nbsp;cart&lt;/span&gt;" style="rounded=1;whiteSpace=wrap;html=1;arcSize=32;" parent="1" vertex="1">
          <mxGeometry x="470" y="705" width="90" height="26.5" as="geometry" />
        </mxCell>
        <mxCell id="bY9uumYXsHetjOn1w0_e-501" value="" style="edgeStyle=elbowEdgeStyle;html=1;elbow=vertical;verticalAlign=bottom;endArrow=open;rounded=0;labelBackgroundColor=none;endSize=12;" parent="1" edge="1">
          <mxGeometry x="-0.1442" relative="1" as="geometry">
            <mxPoint x="401" y="680.5" as="targetPoint" />
            <mxPoint x="400.76" y="638.5" as="sourcePoint" />
            <mxPoint as="offset" />
          </mxGeometry>
        </mxCell>
        <mxCell id="bY9uumYXsHetjOn1w0_e-503" value="" style="shape=rhombus;html=1;verticalLabelPosition=bottom;verticalAlignment=top;" parent="1" vertex="1">
          <mxGeometry x="386" y="680.5" width="30" height="38" as="geometry" />
        </mxCell>
        <mxCell id="bY9uumYXsHetjOn1w0_e-504" value="" style="shape=rhombus;html=1;verticalLabelPosition=bottom;verticalAlignment=top;" parent="1" vertex="1">
          <mxGeometry x="269" y="719.5" width="30" height="38" as="geometry" />
        </mxCell>
        <mxCell id="bY9uumYXsHetjOn1w0_e-507" value="" style="edgeStyle=elbowEdgeStyle;html=1;elbow=vertical;verticalAlign=bottom;endArrow=open;rounded=0;labelBackgroundColor=none;endSize=12;" parent="1" edge="1">
          <mxGeometry x="-0.1442" relative="1" as="geometry">
            <mxPoint x="234" y="738.5" as="targetPoint" />
            <mxPoint x="233.9373469825655" y="738.3823529411766" as="sourcePoint" />
            <mxPoint as="offset" />
            <Array as="points" />
          </mxGeometry>
        </mxCell>
        <mxCell id="bY9uumYXsHetjOn1w0_e-511" value="" style="edgeStyle=elbowEdgeStyle;html=1;elbow=vertical;verticalAlign=bottom;endArrow=open;rounded=0;labelBackgroundColor=none;endSize=12;entryX=1;entryY=0.5;entryDx=0;entryDy=0;" parent="1" target="bY9uumYXsHetjOn1w0_e-606" edge="1">
          <mxGeometry x="-0.1442" relative="1" as="geometry">
            <mxPoint x="141" y="739.5" as="targetPoint" />
            <mxPoint x="269" y="738" as="sourcePoint" />
            <mxPoint as="offset" />
            <Array as="points">
              <mxPoint x="249" y="739" />
            </Array>
          </mxGeometry>
        </mxCell>
        <mxCell id="bY9uumYXsHetjOn1w0_e-512" value="" style="edgeStyle=elbowEdgeStyle;html=1;elbow=vertical;verticalAlign=bottom;endArrow=open;rounded=0;labelBackgroundColor=none;endSize=12;" parent="1" edge="1">
          <mxGeometry x="-0.1442" relative="1" as="geometry">
            <mxPoint x="514.0000000000002" y="731.5" as="targetPoint" />
            <mxPoint x="514" y="770.5" as="sourcePoint" />
            <mxPoint as="offset" />
            <Array as="points" />
          </mxGeometry>
        </mxCell>
        <mxCell id="bY9uumYXsHetjOn1w0_e-513" value="" style="shape=rhombus;html=1;verticalLabelPosition=bottom;verticalAlignment=top;" parent="1" vertex="1">
          <mxGeometry x="498" y="770.5" width="30" height="38" as="geometry" />
        </mxCell>
        <mxCell id="bY9uumYXsHetjOn1w0_e-514" value="" style="endArrow=none;html=1;rounded=0;" parent="1" edge="1">
          <mxGeometry width="50" height="50" relative="1" as="geometry">
            <mxPoint x="514" y="870.5" as="sourcePoint" />
            <mxPoint x="513.5999999999999" y="807.5" as="targetPoint" />
          </mxGeometry>
        </mxCell>
        <mxCell id="bY9uumYXsHetjOn1w0_e-515" value="" style="edgeStyle=elbowEdgeStyle;html=1;elbow=vertical;verticalAlign=bottom;endArrow=open;rounded=0;labelBackgroundColor=none;endSize=12;entryX=0.5;entryY=1;entryDx=0;entryDy=0;" parent="1" target="bY9uumYXsHetjOn1w0_e-504" edge="1">
          <mxGeometry x="-0.1442" relative="1" as="geometry">
            <mxPoint x="282" y="769.5" as="targetPoint" />
            <mxPoint x="514" y="870.5" as="sourcePoint" />
            <mxPoint as="offset" />
            <Array as="points">
              <mxPoint x="382" y="879.5" />
            </Array>
          </mxGeometry>
        </mxCell>
        <mxCell id="bY9uumYXsHetjOn1w0_e-516" value="A" style="ellipse;whiteSpace=wrap;html=1;aspect=fixed;" parent="1" vertex="1">
          <mxGeometry x="314" y="689.5" width="20" height="20" as="geometry" />
        </mxCell>
        <mxCell id="bY9uumYXsHetjOn1w0_e-517" value="" style="edgeStyle=elbowEdgeStyle;html=1;elbow=vertical;verticalAlign=bottom;endArrow=open;rounded=0;labelBackgroundColor=none;endSize=12;entryX=0.458;entryY=-0.009;entryDx=0;entryDy=0;entryPerimeter=0;" parent="1" target="bY9uumYXsHetjOn1w0_e-518" edge="1">
          <mxGeometry x="-0.1442" relative="1" as="geometry">
            <mxPoint x="401" y="765.5" as="targetPoint" />
            <mxPoint x="400.73" y="718.5" as="sourcePoint" />
            <mxPoint as="offset" />
            <Array as="points" />
          </mxGeometry>
        </mxCell>
        <mxCell id="bY9uumYXsHetjOn1w0_e-518" value="View&amp;nbsp;&lt;span style=&quot;background-color: initial;&quot;&gt;cart&lt;/span&gt;" style="rounded=1;whiteSpace=wrap;html=1;arcSize=32;" parent="1" vertex="1">
          <mxGeometry x="356" y="772" width="98" height="28" as="geometry" />
        </mxCell>
        <mxCell id="bY9uumYXsHetjOn1w0_e-519" value="" style="edgeStyle=elbowEdgeStyle;html=1;elbow=vertical;verticalAlign=bottom;endArrow=open;rounded=0;labelBackgroundColor=none;endSize=12;entryX=1;entryY=0.5;entryDx=0;entryDy=0;" parent="1" target="bY9uumYXsHetjOn1w0_e-516" edge="1">
          <mxGeometry x="-0.1442" relative="1" as="geometry">
            <mxPoint x="342.19000000000005" y="700.5" as="targetPoint" />
            <mxPoint x="386" y="698.5" as="sourcePoint" />
            <mxPoint as="offset" />
            <Array as="points" />
          </mxGeometry>
        </mxCell>
        <mxCell id="bY9uumYXsHetjOn1w0_e-520" value="" style="edgeStyle=elbowEdgeStyle;html=1;elbow=vertical;verticalAlign=bottom;endArrow=open;rounded=0;labelBackgroundColor=none;endSize=12;exitX=1;exitY=0.75;exitDx=0;exitDy=0;" parent="1" edge="1">
          <mxGeometry x="-0.1442" relative="1" as="geometry">
            <mxPoint x="498" y="788.9499999999999" as="targetPoint" />
            <mxPoint x="454" y="790.04" as="sourcePoint" />
            <mxPoint as="offset" />
            <Array as="points" />
          </mxGeometry>
        </mxCell>
        <mxCell id="bY9uumYXsHetjOn1w0_e-523" value="&lt;font style=&quot;font-size: 9px;&quot;&gt;[add more&amp;nbsp;&lt;span style=&quot;background-color: initial;&quot;&gt;shopping]&lt;/span&gt;&lt;/font&gt;" style="text;html=1;align=center;verticalAlign=middle;resizable=0;points=[];autosize=1;strokeColor=none;fillColor=none;strokeWidth=2;" parent="1" vertex="1">
          <mxGeometry x="410" y="800.5" width="110" height="30" as="geometry" />
        </mxCell>
        <mxCell id="bY9uumYXsHetjOn1w0_e-524" value="" style="edgeStyle=elbowEdgeStyle;html=1;elbow=vertical;verticalAlign=bottom;endArrow=open;rounded=0;labelBackgroundColor=none;endSize=12;entryX=0.5;entryY=1;entryDx=0;entryDy=0;exitX=1;exitY=0.5;exitDx=0;exitDy=0;" parent="1" source="bY9uumYXsHetjOn1w0_e-513" target="bY9uumYXsHetjOn1w0_e-539" edge="1">
          <mxGeometry x="-0.1442" relative="1" as="geometry">
            <mxPoint x="673" y="860.5" as="targetPoint" />
            <mxPoint x="530" y="790" as="sourcePoint" />
            <mxPoint as="offset" />
            <Array as="points">
              <mxPoint x="627" y="789.5" />
            </Array>
          </mxGeometry>
        </mxCell>
        <mxCell id="bY9uumYXsHetjOn1w0_e-525" value="&lt;font style=&quot;font-size: 9px;&quot;&gt;[Done with&amp;nbsp;&lt;span style=&quot;background-color: initial;&quot;&gt;shopping]&lt;/span&gt;&lt;/font&gt;" style="text;html=1;align=center;verticalAlign=middle;resizable=0;points=[];autosize=1;strokeColor=none;fillColor=none;strokeWidth=2;" parent="1" vertex="1">
          <mxGeometry x="764.8199999999999" y="366" width="110" height="30" as="geometry" />
        </mxCell>
        <mxCell id="bY9uumYXsHetjOn1w0_e-529" value="&lt;font style=&quot;font-size: 7px;&quot;&gt;[Search]&lt;/font&gt;" style="text;html=1;align=center;verticalAlign=middle;resizable=0;points=[];autosize=1;strokeColor=none;fillColor=none;" parent="1" vertex="1">
          <mxGeometry x="-39.3299999999999" y="234" width="50" height="30" as="geometry" />
        </mxCell>
        <mxCell id="bY9uumYXsHetjOn1w0_e-537" value="&lt;font style=&quot;font-size: 7px;&quot;&gt;[If password incorrect]&lt;/font&gt;" style="text;html=1;align=center;verticalAlign=middle;whiteSpace=wrap;rounded=0;" parent="1" vertex="1">
          <mxGeometry x="-485" y="111" width="73" height="18" as="geometry" />
        </mxCell>
        <mxCell id="bY9uumYXsHetjOn1w0_e-539" value="Order processing payment" style="rounded=1;whiteSpace=wrap;html=1;arcSize=32;" parent="1" vertex="1">
          <mxGeometry x="705" y="713.5" width="130" height="40" as="geometry" />
        </mxCell>
        <mxCell id="bY9uumYXsHetjOn1w0_e-541" value="" style="edgeStyle=elbowEdgeStyle;html=1;elbow=vertical;verticalAlign=bottom;endArrow=open;rounded=0;labelBackgroundColor=none;endSize=12;exitX=0.5;exitY=0;exitDx=0;exitDy=0;" parent="1" source="bY9uumYXsHetjOn1w0_e-539" edge="1">
          <mxGeometry x="-0.1442" relative="1" as="geometry">
            <mxPoint x="770" y="657" as="targetPoint" />
            <mxPoint x="770.52" y="630.5" as="sourcePoint" />
            <mxPoint as="offset" />
            <Array as="points" />
          </mxGeometry>
        </mxCell>
        <mxCell id="bY9uumYXsHetjOn1w0_e-546" value="" style="edgeStyle=elbowEdgeStyle;html=1;elbow=vertical;verticalAlign=bottom;endArrow=open;rounded=0;labelBackgroundColor=none;endSize=12;exitX=0.5;exitY=0;exitDx=0;exitDy=0;" parent="1" source="c17SYyF0Zs9dSF2ZK7In-38" edge="1">
          <mxGeometry x="-0.1442" relative="1" as="geometry">
            <mxPoint x="311" y="458" as="targetPoint" />
            <mxPoint x="-120" y="590" as="sourcePoint" />
            <mxPoint as="offset" />
            <Array as="points">
              <mxPoint x="41" y="504.5" />
            </Array>
          </mxGeometry>
        </mxCell>
        <mxCell id="bY9uumYXsHetjOn1w0_e-552" value="" style="edgeStyle=elbowEdgeStyle;html=1;elbow=vertical;verticalAlign=bottom;endArrow=open;rounded=0;labelBackgroundColor=none;endSize=9;" parent="1" edge="1">
          <mxGeometry x="-0.1442" relative="1" as="geometry">
            <mxPoint x="70.40999999999997" y="421" as="targetPoint" />
            <mxPoint x="215.83000000000004" y="260" as="sourcePoint" />
            <mxPoint as="offset" />
          </mxGeometry>
        </mxCell>
        <mxCell id="bY9uumYXsHetjOn1w0_e-554" value="Product&amp;nbsp;&lt;span style=&quot;background-color: initial;&quot;&gt;Search&lt;/span&gt;" style="rounded=1;whiteSpace=wrap;html=1;arcSize=32;" parent="1" vertex="1">
          <mxGeometry x="19" y="240" width="121" height="40" as="geometry" />
        </mxCell>
        <mxCell id="bY9uumYXsHetjOn1w0_e-555" value="" style="endArrow=none;html=1;rounded=0;exitX=1;exitY=0.5;exitDx=0;exitDy=0;" parent="1" source="bY9uumYXsHetjOn1w0_e-554" edge="1">
          <mxGeometry width="50" height="50" relative="1" as="geometry">
            <mxPoint x="146.0000000000001" y="260.16999999999996" as="sourcePoint" />
            <mxPoint x="216.0000000000001" y="260.16999999999996" as="targetPoint" />
            <Array as="points" />
          </mxGeometry>
        </mxCell>
        <mxCell id="bY9uumYXsHetjOn1w0_e-556" value="" style="endArrow=none;html=1;rounded=0;" parent="1" edge="1">
          <mxGeometry width="50" height="50" relative="1" as="geometry">
            <mxPoint x="-144.8499999999999" y="244.5" as="sourcePoint" />
            <mxPoint x="-145" y="80" as="targetPoint" />
            <Array as="points" />
          </mxGeometry>
        </mxCell>
        <mxCell id="bY9uumYXsHetjOn1w0_e-559" value="" style="endArrow=none;html=1;rounded=0;exitX=0.5;exitY=1;exitDx=0;exitDy=0;" parent="1" source="bY9uumYXsHetjOn1w0_e-466" edge="1">
          <mxGeometry width="50" height="50" relative="1" as="geometry">
            <mxPoint x="-40" y="350" as="sourcePoint" />
            <mxPoint x="54" y="439" as="targetPoint" />
            <Array as="points">
              <mxPoint x="-40" y="440" />
            </Array>
          </mxGeometry>
        </mxCell>
        <mxCell id="bY9uumYXsHetjOn1w0_e-580" value="" style="shape=rhombus;html=1;verticalLabelPosition=bottom;verticalAlignment=top;" parent="1" vertex="1">
          <mxGeometry x="-709" y="709.5" width="30" height="38" as="geometry" />
        </mxCell>
        <mxCell id="bY9uumYXsHetjOn1w0_e-582" value="" style="endArrow=classic;html=1;rounded=0;entryX=0.078;entryY=0.633;entryDx=0;entryDy=0;entryPerimeter=0;" parent="1" edge="1">
          <mxGeometry width="50" height="50" relative="1" as="geometry">
            <mxPoint x="-694" y="639" as="sourcePoint" />
            <mxPoint x="-694.27" y="708.5300000000001" as="targetPoint" />
          </mxGeometry>
        </mxCell>
        <mxCell id="bY9uumYXsHetjOn1w0_e-583" value="" style="endArrow=classic;html=1;rounded=0;exitX=1;exitY=0.5;exitDx=0;exitDy=0;exitPerimeter=0;" parent="1" edge="1">
          <mxGeometry width="50" height="50" relative="1" as="geometry">
            <mxPoint x="-679" y="728.7" as="sourcePoint" />
            <mxPoint x="-615" y="729.03" as="targetPoint" />
          </mxGeometry>
        </mxCell>
        <mxCell id="bY9uumYXsHetjOn1w0_e-584" value="Checkout" style="rounded=1;whiteSpace=wrap;html=1;arcSize=32;" parent="1" vertex="1">
          <mxGeometry x="-617" y="714.75" width="72" height="27.5" as="geometry" />
        </mxCell>
        <mxCell id="bY9uumYXsHetjOn1w0_e-588" value="" style="endArrow=classic;html=1;rounded=0;exitX=1;exitY=1;exitDx=0;exitDy=0;" parent="1" edge="1">
          <mxGeometry width="50" height="50" relative="1" as="geometry">
            <mxPoint x="-550.1199999999998" y="741.8" as="sourcePoint" />
            <mxPoint x="-509.8862338735786" y="773.4964662394959" as="targetPoint" />
          </mxGeometry>
        </mxCell>
        <mxCell id="bY9uumYXsHetjOn1w0_e-589" value="" style="ellipse;html=1;shape=endState;fillColor=#000000;strokeColor=#B3B3B3;" parent="1" vertex="1">
          <mxGeometry x="-513" y="770.5" width="30" height="30" as="geometry" />
        </mxCell>
        <mxCell id="bY9uumYXsHetjOn1w0_e-590" value="" style="endArrow=classic;html=1;rounded=0;exitX=0.5;exitY=1;exitDx=0;exitDy=0;" parent="1" source="bY9uumYXsHetjOn1w0_e-580" edge="1">
          <mxGeometry width="50" height="50" relative="1" as="geometry">
            <mxPoint x="-735" y="900.5" as="sourcePoint" />
            <mxPoint x="-694" y="788.5" as="targetPoint" />
          </mxGeometry>
        </mxCell>
        <mxCell id="bY9uumYXsHetjOn1w0_e-592" value="B" style="ellipse;whiteSpace=wrap;html=1;aspect=fixed;" parent="1" vertex="1">
          <mxGeometry x="-704" y="788.5" width="20" height="20" as="geometry" />
        </mxCell>
        <mxCell id="bY9uumYXsHetjOn1w0_e-595" style="edgeStyle=orthogonalEdgeStyle;rounded=0;orthogonalLoop=1;jettySize=auto;html=1;" parent="1" target="bY9uumYXsHetjOn1w0_e-596" edge="1">
          <mxGeometry relative="1" as="geometry">
            <mxPoint x="-582" y="540.74" as="targetPoint" />
            <mxPoint x="-692" y="535.24" as="sourcePoint" />
            <Array as="points" />
          </mxGeometry>
        </mxCell>
        <mxCell id="bY9uumYXsHetjOn1w0_e-593" value="&lt;font style=&quot;text-wrap: nowrap; font-size: 13px;&quot;&gt;Check&amp;nbsp;&lt;/font&gt;&lt;span style=&quot;font-size: 13px; text-wrap: nowrap; background-color: initial;&quot;&gt;shopping cart&lt;/span&gt;" style="rounded=1;whiteSpace=wrap;html=1;arcSize=21;" parent="1" vertex="1">
          <mxGeometry x="-802" y="522.5" width="150" height="26" as="geometry" />
        </mxCell>
        <mxCell id="bY9uumYXsHetjOn1w0_e-596" value="A" style="ellipse;whiteSpace=wrap;html=1;aspect=fixed;" parent="1" vertex="1">
          <mxGeometry x="-578" y="526" width="20" height="20" as="geometry" />
        </mxCell>
        <mxCell id="bY9uumYXsHetjOn1w0_e-598" value="" style="endArrow=none;dashed=1;html=1;rounded=0;" parent="1" source="bY9uumYXsHetjOn1w0_e-597" edge="1">
          <mxGeometry width="50" height="50" relative="1" as="geometry">
            <mxPoint x="-677" y="529" as="sourcePoint" />
            <mxPoint x="-702" y="474" as="targetPoint" />
          </mxGeometry>
        </mxCell>
        <mxCell id="bY9uumYXsHetjOn1w0_e-606" value="&lt;font style=&quot;font-size: 12px;&quot;&gt;Order&amp;nbsp;&lt;/font&gt;&lt;div&gt;&lt;font style=&quot;font-size: 12px;&quot;&gt;Management&lt;/font&gt;&lt;/div&gt;" style="rounded=1;whiteSpace=wrap;html=1;arcSize=8;" parent="1" vertex="1">
          <mxGeometry x="10.670000000000073" y="713.5" width="120" height="50" as="geometry" />
        </mxCell>
        <mxCell id="bY9uumYXsHetjOn1w0_e-611" value="" style="edgeStyle=elbowEdgeStyle;html=1;elbow=horizontal;verticalAlign=bottom;endArrow=none;rounded=0;labelBackgroundColor=none;endSize=12;endFill=0;" parent="1" edge="1">
          <mxGeometry x="-0.3363" y="2" relative="1" as="geometry">
            <mxPoint x="-693" y="113.5" as="targetPoint" />
            <mxPoint x="-410" y="142" as="sourcePoint" />
            <mxPoint as="offset" />
            <Array as="points">
              <mxPoint x="-410" y="145" />
            </Array>
          </mxGeometry>
        </mxCell>
        <mxCell id="bY9uumYXsHetjOn1w0_e-623" value="" style="endArrow=none;dashed=1;html=1;rounded=0;" parent="1" source="bY9uumYXsHetjOn1w0_e-593" target="bY9uumYXsHetjOn1w0_e-597" edge="1">
          <mxGeometry width="50" height="50" relative="1" as="geometry">
            <mxPoint x="-702" y="513" as="sourcePoint" />
            <mxPoint x="-702" y="474" as="targetPoint" />
          </mxGeometry>
        </mxCell>
        <mxCell id="bY9uumYXsHetjOn1w0_e-597" value="" style="shape=note2;boundedLbl=1;whiteSpace=wrap;html=1;size=20;verticalAlign=top;align=center;" parent="1" vertex="1">
          <mxGeometry x="-728" y="434.5" width="150" height="48" as="geometry" />
        </mxCell>
        <mxCell id="bY9uumYXsHetjOn1w0_e-629" value="" style="endArrow=none;html=1;rounded=0;entryX=0.626;entryY=0.02;entryDx=0;entryDy=0;entryPerimeter=0;endFill=0;exitX=0.226;exitY=0.97;exitDx=0;exitDy=0;exitPerimeter=0;" parent="1" source="c17SYyF0Zs9dSF2ZK7In-38" target="bY9uumYXsHetjOn1w0_e-651" edge="1">
          <mxGeometry width="50" height="50" relative="1" as="geometry">
            <mxPoint x="-243" y="655.98" as="sourcePoint" />
            <mxPoint x="-186" y="655.496" as="targetPoint" />
          </mxGeometry>
        </mxCell>
        <mxCell id="bY9uumYXsHetjOn1w0_e-630" value="" style="endArrow=none;html=1;rounded=0;" parent="1" edge="1">
          <mxGeometry width="50" height="50" relative="1" as="geometry">
            <mxPoint x="120" y="764.5" as="sourcePoint" />
            <mxPoint x="170" y="830" as="targetPoint" />
          </mxGeometry>
        </mxCell>
        <mxCell id="bY9uumYXsHetjOn1w0_e-634" value="" style="endArrow=none;html=1;rounded=0;exitX=0.455;exitY=0.996;exitDx=0;exitDy=0;exitPerimeter=0;" parent="1" source="bY9uumYXsHetjOn1w0_e-606" edge="1">
          <mxGeometry width="50" height="50" relative="1" as="geometry">
            <mxPoint x="60" y="772.5" as="sourcePoint" />
            <mxPoint x="60" y="830.5" as="targetPoint" />
          </mxGeometry>
        </mxCell>
        <mxCell id="bY9uumYXsHetjOn1w0_e-637" value="" style="endArrow=none;html=1;rounded=0;entryX=0.093;entryY=0.996;entryDx=0;entryDy=0;entryPerimeter=0;" parent="1" target="bY9uumYXsHetjOn1w0_e-606" edge="1">
          <mxGeometry width="50" height="50" relative="1" as="geometry">
            <mxPoint x="-80" y="830" as="sourcePoint" />
            <mxPoint x="-11" y="789.21" as="targetPoint" />
          </mxGeometry>
        </mxCell>
        <mxCell id="bY9uumYXsHetjOn1w0_e-638" value="&lt;font style=&quot;font-size: 11px;&quot;&gt;Notify customers&lt;/font&gt;&lt;div style=&quot;font-size: 11px;&quot;&gt;&lt;font style=&quot;font-size: 11px;&quot;&gt;&amp;nbsp;of changes&lt;/font&gt;&lt;/div&gt;" style="rounded=1;whiteSpace=wrap;html=1;arcSize=32;" parent="1" vertex="1">
          <mxGeometry x="-5" y="830.5" width="112" height="33.5" as="geometry" />
        </mxCell>
        <mxCell id="bY9uumYXsHetjOn1w0_e-648" value="" style="endArrow=none;html=1;rounded=0;entryX=0.578;entryY=0.039;entryDx=0;entryDy=0;entryPerimeter=0;exitX=0.426;exitY=0.97;exitDx=0;exitDy=0;exitPerimeter=0;" parent="1" source="c17SYyF0Zs9dSF2ZK7In-38" target="bY9uumYXsHetjOn1w0_e-646" edge="1">
          <mxGeometry width="50" height="50" relative="1" as="geometry">
            <mxPoint x="-60" y="685" as="sourcePoint" />
            <mxPoint x="-19" y="699.5" as="targetPoint" />
          </mxGeometry>
        </mxCell>
        <mxCell id="bY9uumYXsHetjOn1w0_e-646" value="&lt;span style=&quot;font-size: 10px;&quot;&gt;Remove&lt;/span&gt;&lt;span style=&quot;background-color: initial; font-size: 10px;&quot;&gt;&amp;nbsp;product&lt;/span&gt;" style="rounded=1;whiteSpace=wrap;html=1;arcSize=32;" parent="1" vertex="1">
          <mxGeometry x="-204" y="744.5" width="94" height="29" as="geometry" />
        </mxCell>
        <mxCell id="bY9uumYXsHetjOn1w0_e-649" value="" style="endArrow=none;html=1;rounded=0;entryX=0.321;entryY=0.06;entryDx=0;entryDy=0;entryPerimeter=0;exitX=0.383;exitY=0.998;exitDx=0;exitDy=0;exitPerimeter=0;" parent="1" source="c17SYyF0Zs9dSF2ZK7In-38" target="bY9uumYXsHetjOn1w0_e-643" edge="1">
          <mxGeometry width="50" height="50" relative="1" as="geometry">
            <mxPoint x="-145.36" y="749.5" as="sourcePoint" />
            <mxPoint x="-145" y="785.5" as="targetPoint" />
          </mxGeometry>
        </mxCell>
        <mxCell id="bY9uumYXsHetjOn1w0_e-651" value="&lt;span style=&quot;font-size: 10px;&quot;&gt;Update stock avilability&lt;/span&gt;" style="rounded=1;whiteSpace=wrap;html=1;arcSize=32;" parent="1" vertex="1">
          <mxGeometry x="-410" y="705" width="121.67" height="29" as="geometry" />
        </mxCell>
        <mxCell id="bY9uumYXsHetjOn1w0_e-655" value="Start" style="text;html=1;align=center;verticalAlign=middle;whiteSpace=wrap;rounded=0;" parent="1" vertex="1">
          <mxGeometry x="-938" y="182.5" width="58" height="10" as="geometry" />
        </mxCell>
        <mxCell id="bY9uumYXsHetjOn1w0_e-656" value="End" style="text;html=1;align=center;verticalAlign=middle;whiteSpace=wrap;rounded=0;" parent="1" vertex="1">
          <mxGeometry x="-531" y="803.5" width="58" height="10" as="geometry" />
        </mxCell>
        <mxCell id="c17SYyF0Zs9dSF2ZK7In-1" value="&lt;font style=&quot;text-wrap: nowrap; font-size: 13px;&quot;&gt;Proceed to&amp;nbsp;&lt;/font&gt;&lt;span style=&quot;font-size: 13px; text-wrap: nowrap; background-color: initial;&quot;&gt;Checkout&lt;/span&gt;" style="rounded=1;whiteSpace=wrap;html=1;arcSize=32;" parent="1" vertex="1">
          <mxGeometry x="-757" y="611.5" width="140" height="27" as="geometry" />
        </mxCell>
        <mxCell id="c17SYyF0Zs9dSF2ZK7In-3" value="" style="edgeStyle=elbowEdgeStyle;html=1;elbow=vertical;verticalAlign=bottom;endArrow=none;rounded=0;labelBackgroundColor=none;endSize=12;endFill=0;exitX=1;exitY=0.5;exitDx=0;exitDy=0;" parent="1" source="GWZe_AKXVVsgh4Q6ZviH-1" edge="1">
          <mxGeometry x="0.9805" y="104" relative="1" as="geometry">
            <mxPoint x="-349" y="162" as="targetPoint" />
            <mxPoint x="-389" y="161" as="sourcePoint" />
            <mxPoint x="-14" y="-52" as="offset" />
          </mxGeometry>
        </mxCell>
        <mxCell id="c17SYyF0Zs9dSF2ZK7In-4" value="&lt;font style=&quot;font-size: 11px;&quot;&gt;Secure&lt;/font&gt;&lt;div&gt;&lt;font style=&quot;font-size: 11px;&quot;&gt;&amp;nbsp;password&lt;/font&gt;&lt;/div&gt;" style="rounded=1;whiteSpace=wrap;html=1;arcSize=32;" parent="1" vertex="1">
          <mxGeometry x="-354.5" y="141" width="90" height="38" as="geometry" />
        </mxCell>
        <mxCell id="c17SYyF0Zs9dSF2ZK7In-5" value="" style="shape=rhombus;html=1;verticalLabelPosition=bottom;verticalAlignment=top;" parent="1" vertex="1">
          <mxGeometry x="-324.5" y="240" width="31" height="40" as="geometry" />
        </mxCell>
        <mxCell id="c17SYyF0Zs9dSF2ZK7In-6" value="&lt;font style=&quot;font-size: 11px;&quot;&gt;Password reset&lt;/font&gt;" style="rounded=1;whiteSpace=wrap;html=1;arcSize=32;" parent="1" vertex="1">
          <mxGeometry x="-603" y="241" width="120" height="38" as="geometry" />
        </mxCell>
        <mxCell id="c17SYyF0Zs9dSF2ZK7In-8" value="&lt;font style=&quot;font-size: 7px;&quot;&gt;[Return to Login]&lt;/font&gt;" style="text;html=1;align=center;verticalAlign=middle;whiteSpace=wrap;rounded=0;" parent="1" vertex="1">
          <mxGeometry x="-689" y="99" width="56" height="12" as="geometry" />
        </mxCell>
        <mxCell id="c17SYyF0Zs9dSF2ZK7In-9" value="&lt;font style=&quot;font-size: 10px;&quot;&gt;Separate Admin login interface&lt;/font&gt;" style="rounded=1;whiteSpace=wrap;html=1;arcSize=32;" parent="1" vertex="1">
          <mxGeometry x="-639" y="325.5" width="156" height="30" as="geometry" />
        </mxCell>
        <mxCell id="c17SYyF0Zs9dSF2ZK7In-11" value="" style="shape=rhombus;html=1;verticalLabelPosition=bottom;verticalAlignment=top;" parent="1" vertex="1">
          <mxGeometry x="-831" y="245.5" width="31" height="40" as="geometry" />
        </mxCell>
        <mxCell id="c17SYyF0Zs9dSF2ZK7In-13" value="" style="endArrow=none;html=1;rounded=0;" parent="1" source="c17SYyF0Zs9dSF2ZK7In-11" edge="1">
          <mxGeometry width="50" height="50" relative="1" as="geometry">
            <mxPoint x="-795" y="265.5" as="sourcePoint" />
            <mxPoint x="-603" y="265" as="targetPoint" />
            <Array as="points">
              <mxPoint x="-725" y="265.24" />
            </Array>
          </mxGeometry>
        </mxCell>
        <mxCell id="c17SYyF0Zs9dSF2ZK7In-16" value="" style="endArrow=none;html=1;rounded=0;" parent="1" edge="1">
          <mxGeometry width="50" height="50" relative="1" as="geometry">
            <mxPoint x="-815.5" y="285.5" as="sourcePoint" />
            <mxPoint x="-639" y="346" as="targetPoint" />
            <Array as="points">
              <mxPoint x="-816" y="345.5" />
            </Array>
          </mxGeometry>
        </mxCell>
        <mxCell id="c17SYyF0Zs9dSF2ZK7In-20" value="" style="edgeStyle=elbowEdgeStyle;html=1;elbow=horizontal;verticalAlign=bottom;endArrow=none;rounded=0;labelBackgroundColor=none;endSize=9;exitX=1;exitY=0.5;exitDx=0;exitDy=0;endFill=0;strokeWidth=1;startSize=6;jumpSize=6;entryX=0;entryY=0.5;entryDx=0;entryDy=0;" parent="1" edge="1">
          <mxGeometry x="-0.2861" y="2" relative="1" as="geometry">
            <mxPoint x="-218.96000000000004" y="260" as="targetPoint" />
            <mxPoint x="-292.5" y="259.74" as="sourcePoint" />
            <mxPoint as="offset" />
          </mxGeometry>
        </mxCell>
        <mxCell id="c17SYyF0Zs9dSF2ZK7In-21" value="&lt;font style=&quot;font-size: 7px;&quot;&gt;[if Password is correct]&lt;/font&gt;" style="text;html=1;align=center;verticalAlign=middle;whiteSpace=wrap;rounded=0;" parent="1" vertex="1">
          <mxGeometry x="-295" y="240" width="75" height="18" as="geometry" />
        </mxCell>
        <mxCell id="c17SYyF0Zs9dSF2ZK7In-28" value="" style="endArrow=open;html=1;rounded=0;endFill=0;" parent="1" edge="1">
          <mxGeometry width="50" height="50" relative="1" as="geometry">
            <mxPoint x="-150" y="384.53" as="sourcePoint" />
            <mxPoint x="-110" y="435" as="targetPoint" />
          </mxGeometry>
        </mxCell>
        <mxCell id="c17SYyF0Zs9dSF2ZK7In-29" value="" style="endArrow=open;html=1;rounded=0;endFill=0;entryX=0.784;entryY=0.011;entryDx=0;entryDy=0;entryPerimeter=0;" parent="1" target="c17SYyF0Zs9dSF2ZK7In-31" edge="1">
          <mxGeometry width="50" height="50" relative="1" as="geometry">
            <mxPoint x="-170" y="384.53000000000003" as="sourcePoint" />
            <mxPoint x="-210" y="430" as="targetPoint" />
          </mxGeometry>
        </mxCell>
        <mxCell id="c17SYyF0Zs9dSF2ZK7In-37" value="&lt;span style=&quot;font-family: Helvetica; font-size: 12px; font-style: normal; font-variant-ligatures: normal; font-variant-caps: normal; font-weight: 400; letter-spacing: normal; orphans: 2; text-align: center; text-indent: 0px; text-transform: none; widows: 2; word-spacing: 0px; -webkit-text-stroke-width: 0px; white-space: normal; text-decoration-thickness: initial; text-decoration-style: initial; text-decoration-color: initial; float: none; display: inline !important;&quot;&gt;&amp;nbsp;Shopping cart can be&amp;nbsp;&lt;/span&gt;&lt;div&gt;&lt;span style=&quot;font-family: Helvetica; font-size: 12px; font-style: normal; font-variant-ligatures: normal; font-variant-caps: normal; font-weight: 400; letter-spacing: normal; orphans: 2; text-align: center; text-indent: 0px; text-transform: none; widows: 2; word-spacing: 0px; -webkit-text-stroke-width: 0px; white-space: normal; text-decoration-thickness: initial; text-decoration-style: initial; text-decoration-color: initial; float: none; display: inline !important;&quot;&gt;&amp;nbsp;checked at any time&lt;/span&gt;&lt;/div&gt;" style="text;whiteSpace=wrap;html=1;fillColor=none;fontColor=default;labelBackgroundColor=none;" parent="1" vertex="1">
          <mxGeometry x="-722" y="438.5" width="130" height="40" as="geometry" />
        </mxCell>
        <mxCell id="c17SYyF0Zs9dSF2ZK7In-38" value="&lt;span style=&quot;background-color: rgb(251, 251, 251);&quot;&gt;&lt;font style=&quot;font-size: 13px;&quot;&gt;Inventory Management&lt;/font&gt;&lt;/span&gt;" style="rounded=1;whiteSpace=wrap;html=1;arcSize=8;" parent="1" vertex="1">
          <mxGeometry x="-237" y="572" width="159" height="47.5" as="geometry" />
        </mxCell>
        <mxCell id="bY9uumYXsHetjOn1w0_e-643" value="&lt;font style=&quot;font-size: 10px;&quot;&gt;Add product&lt;/font&gt;" style="rounded=1;whiteSpace=wrap;html=1;arcSize=32;" parent="1" vertex="1">
          <mxGeometry x="-300.05" y="744.5" width="80.09" height="29" as="geometry" />
        </mxCell>
        <mxCell id="c17SYyF0Zs9dSF2ZK7In-40" value="&lt;span style=&quot;font-size: 10px;&quot;&gt;Edit&lt;/span&gt;&lt;span style=&quot;background-color: initial; font-size: 10px;&quot;&gt;&amp;nbsp;product&lt;/span&gt;" style="rounded=1;whiteSpace=wrap;html=1;arcSize=32;" parent="1" vertex="1">
          <mxGeometry x="-128" y="705" width="94" height="29" as="geometry" />
        </mxCell>
        <mxCell id="c17SYyF0Zs9dSF2ZK7In-41" value="" style="endArrow=none;html=1;rounded=0;entryX=0.418;entryY=0.02;entryDx=0;entryDy=0;exitX=0.549;exitY=0.998;exitDx=0;exitDy=0;exitPerimeter=0;entryPerimeter=0;" parent="1" source="c17SYyF0Zs9dSF2ZK7In-38" target="c17SYyF0Zs9dSF2ZK7In-40" edge="1">
          <mxGeometry width="50" height="50" relative="1" as="geometry">
            <mxPoint x="-114" y="619" as="sourcePoint" />
            <mxPoint x="-72.63" y="821.87" as="targetPoint" />
          </mxGeometry>
        </mxCell>
        <mxCell id="bY9uumYXsHetjOn1w0_e-493" value="" style="shape=rhombus;html=1;verticalLabelPosition=bottom;verticalAlignment=top;" parent="1" vertex="1">
          <mxGeometry x="386" y="600.5" width="30" height="38" as="geometry" />
        </mxCell>
        <mxCell id="c17SYyF0Zs9dSF2ZK7In-43" value="&lt;span style=&quot;background-color: rgb(251, 251, 251);&quot;&gt;&lt;font style=&quot;font-size: 11px;&quot;&gt;View order details&lt;/font&gt;&lt;/span&gt;" style="rounded=1;whiteSpace=wrap;html=1;arcSize=32;" parent="1" vertex="1">
          <mxGeometry x="115" y="830.5" width="113" height="27.5" as="geometry" />
        </mxCell>
        <mxCell id="c17SYyF0Zs9dSF2ZK7In-44" value="&lt;span style=&quot;background-color: rgb(251, 251, 251);&quot;&gt;&lt;font style=&quot;font-size: 11px;&quot;&gt;Update order status&lt;/font&gt;&lt;/span&gt;" style="rounded=1;whiteSpace=wrap;html=1;arcSize=29;" parent="1" vertex="1">
          <mxGeometry x="-138" y="830.5" width="125" height="26.5" as="geometry" />
        </mxCell>
        <mxCell id="c17SYyF0Zs9dSF2ZK7In-45" value="" style="endArrow=none;html=1;rounded=0;entryX=0.626;entryY=0.02;entryDx=0;entryDy=0;entryPerimeter=0;endFill=0;exitX=0.25;exitY=0;exitDx=0;exitDy=0;" parent="1" source="c17SYyF0Zs9dSF2ZK7In-48" edge="1">
          <mxGeometry width="50" height="50" relative="1" as="geometry">
            <mxPoint x="503" y="542" as="sourcePoint" />
            <mxPoint x="446" y="510" as="targetPoint" />
          </mxGeometry>
        </mxCell>
        <mxCell id="c17SYyF0Zs9dSF2ZK7In-46" value="&lt;span style=&quot;font-size: 10px;&quot;&gt;Remove&lt;/span&gt;&lt;span style=&quot;background-color: initial; font-size: 10px;&quot;&gt;&amp;nbsp;item&lt;/span&gt;" style="rounded=1;whiteSpace=wrap;html=1;arcSize=32;" parent="1" vertex="1">
          <mxGeometry x="470.99" y="469" width="84.01" height="29" as="geometry" />
        </mxCell>
        <mxCell id="c17SYyF0Zs9dSF2ZK7In-47" value="" style="endArrow=none;html=1;rounded=0;exitX=0.25;exitY=1;exitDx=0;exitDy=0;startArrow=none;startFill=0;" parent="1" source="c17SYyF0Zs9dSF2ZK7In-46" edge="1">
          <mxGeometry width="50" height="50" relative="1" as="geometry">
            <mxPoint x="546.34" y="448.5" as="sourcePoint" />
            <mxPoint x="446" y="509.5" as="targetPoint" />
          </mxGeometry>
        </mxCell>
        <mxCell id="c17SYyF0Zs9dSF2ZK7In-48" value="&lt;font style=&quot;font-size: 10px;&quot;&gt;Add item&lt;/font&gt;" style="rounded=1;whiteSpace=wrap;html=1;arcSize=32;" parent="1" vertex="1">
          <mxGeometry x="472.95" y="534.5" width="80.09" height="29" as="geometry" />
        </mxCell>
        <mxCell id="c17SYyF0Zs9dSF2ZK7In-56" value="" style="shape=rect;html=1;fillColor=strokeColor;verticalLabelPosition=bottom;verticalAlignment=top;strokeWidth=0;perimeterSpacing=0;" parent="1" vertex="1">
          <mxGeometry x="728" y="655" width="92" height="2.5" as="geometry" />
        </mxCell>
        <mxCell id="c17SYyF0Zs9dSF2ZK7In-57" value="" style="edgeStyle=elbowEdgeStyle;html=1;elbow=vertical;verticalAlign=bottom;endArrow=open;rounded=0;labelBackgroundColor=none;endSize=12;" parent="1" edge="1">
          <mxGeometry x="-0.1442" relative="1" as="geometry">
            <mxPoint x="813" y="600" as="targetPoint" />
            <mxPoint x="812.9999999999999" y="655" as="sourcePoint" />
            <mxPoint as="offset" />
            <Array as="points" />
          </mxGeometry>
        </mxCell>
        <mxCell id="c17SYyF0Zs9dSF2ZK7In-59" value="" style="edgeStyle=elbowEdgeStyle;html=1;elbow=vertical;verticalAlign=bottom;endArrow=open;rounded=0;labelBackgroundColor=none;endSize=12;" parent="1" edge="1">
          <mxGeometry x="-0.1442" relative="1" as="geometry">
            <mxPoint x="735" y="600" as="targetPoint" />
            <mxPoint x="734.9999999999999" y="655" as="sourcePoint" />
            <mxPoint as="offset" />
            <Array as="points" />
          </mxGeometry>
        </mxCell>
        <mxCell id="c17SYyF0Zs9dSF2ZK7In-60" value="" style="shape=rect;html=1;fillColor=strokeColor;verticalLabelPosition=bottom;verticalAlignment=top;strokeWidth=0;perimeterSpacing=0;" parent="1" vertex="1">
          <mxGeometry x="721.32" y="498.73" width="105" height="2.5" as="geometry" />
        </mxCell>
        <mxCell id="c17SYyF0Zs9dSF2ZK7In-61" value="" style="edgeStyle=elbowEdgeStyle;html=1;elbow=vertical;verticalAlign=bottom;endArrow=open;rounded=0;labelBackgroundColor=none;endSize=12;entryX=0.901;entryY=0.129;entryDx=0;entryDy=0;entryPerimeter=0;exitX=0.25;exitY=0;exitDx=0;exitDy=0;" parent="1" target="c17SYyF0Zs9dSF2ZK7In-60" edge="1">
          <mxGeometry x="-0.1442" relative="1" as="geometry">
            <mxPoint x="816.3899999999999" y="498.73" as="targetPoint" />
            <mxPoint x="815.7350000000001" y="569.5" as="sourcePoint" />
            <mxPoint as="offset" />
            <Array as="points" />
          </mxGeometry>
        </mxCell>
        <mxCell id="c17SYyF0Zs9dSF2ZK7In-62" value="" style="edgeStyle=elbowEdgeStyle;html=1;elbow=vertical;verticalAlign=bottom;endArrow=open;rounded=0;labelBackgroundColor=none;endSize=12;entryX=0.458;entryY=-0.009;entryDx=0;entryDy=0;entryPerimeter=0;" parent="1" edge="1">
          <mxGeometry x="-0.1442" relative="1" as="geometry">
            <mxPoint x="731.3899999999999" y="498.73" as="targetPoint" />
            <mxPoint x="731.71" y="562.73" as="sourcePoint" />
            <mxPoint as="offset" />
            <Array as="points" />
          </mxGeometry>
        </mxCell>
        <mxCell id="c17SYyF0Zs9dSF2ZK7In-63" value="" style="edgeStyle=elbowEdgeStyle;html=1;elbow=vertical;verticalAlign=bottom;endArrow=open;rounded=0;labelBackgroundColor=none;endSize=12;" parent="1" edge="1">
          <mxGeometry x="-0.1442" relative="1" as="geometry">
            <mxPoint x="771.71" y="442.73" as="targetPoint" />
            <mxPoint x="771.7599999999999" y="501.23" as="sourcePoint" />
            <mxPoint as="offset" />
            <Array as="points" />
          </mxGeometry>
        </mxCell>
        <mxCell id="bY9uumYXsHetjOn1w0_e-453" value="" style="shape=rhombus;html=1;verticalLabelPosition=bottom;verticalAlignment=top;" parent="1" vertex="1">
          <mxGeometry x="-160" y="241" width="30" height="38" as="geometry" />
        </mxCell>
        <mxCell id="bY9uumYXsHetjOn1w0_e-466" value="" style="shape=rhombus;html=1;verticalLabelPosition=bottom;verticalAlignment=top;" parent="1" vertex="1">
          <mxGeometry x="-55" y="242" width="30" height="38" as="geometry" />
        </mxCell>
        <mxCell id="bY9uumYXsHetjOn1w0_e-526" value="B" style="ellipse;whiteSpace=wrap;html=1;aspect=fixed;" parent="1" vertex="1">
          <mxGeometry x="761.8200000000002" y="324.5" width="20" height="20" as="geometry" />
        </mxCell>
        <mxCell id="c17SYyF0Zs9dSF2ZK7In-67" value="Payment options" style="rounded=1;whiteSpace=wrap;html=1;arcSize=32;" parent="1" vertex="1">
          <mxGeometry x="780.61" y="569.5" width="104.5" height="30" as="geometry" />
        </mxCell>
        <mxCell id="c17SYyF0Zs9dSF2ZK7In-68" value="&lt;font style=&quot;text-wrap: nowrap; font-size: 12px;&quot;&gt;Secure payment&lt;/font&gt;&lt;div style=&quot;text-wrap: nowrap;&quot;&gt;&lt;font style=&quot;font-size: 12px;&quot;&gt;&amp;nbsp;processing&lt;/font&gt;&lt;/div&gt;" style="rounded=1;whiteSpace=wrap;html=1;arcSize=32;" parent="1" vertex="1">
          <mxGeometry x="659" y="563.5" width="112.61" height="36" as="geometry" />
        </mxCell>
        <mxCell id="c17SYyF0Zs9dSF2ZK7In-71" style="edgeStyle=orthogonalEdgeStyle;rounded=0;orthogonalLoop=1;jettySize=auto;html=1;exitX=0.5;exitY=0;exitDx=0;exitDy=0;entryX=0.5;entryY=1;entryDx=0;entryDy=0;" parent="1" source="c17SYyF0Zs9dSF2ZK7In-69" target="bY9uumYXsHetjOn1w0_e-526" edge="1">
          <mxGeometry relative="1" as="geometry" />
        </mxCell>
        <mxCell id="c17SYyF0Zs9dSF2ZK7In-69" value="" style="shape=rhombus;html=1;verticalLabelPosition=bottom;verticalAlignment=top;" parent="1" vertex="1">
          <mxGeometry x="756.8200000000002" y="406.5" width="30" height="38" as="geometry" />
        </mxCell>
        <mxCell id="iPpFipTJn7zkpoiMaYe--2" value="" style="endArrow=none;html=1;rounded=0;" parent="1" edge="1">
          <mxGeometry width="50" height="50" relative="1" as="geometry">
            <mxPoint x="-80" y="886" as="sourcePoint" />
            <mxPoint x="-80" y="857" as="targetPoint" />
          </mxGeometry>
        </mxCell>
        <mxCell id="iPpFipTJn7zkpoiMaYe--3" value="" style="endArrow=none;html=1;rounded=0;" parent="1" edge="1">
          <mxGeometry width="50" height="50" relative="1" as="geometry">
            <mxPoint x="54" y="886" as="sourcePoint" />
            <mxPoint x="54" y="864" as="targetPoint" />
          </mxGeometry>
        </mxCell>
        <mxCell id="iPpFipTJn7zkpoiMaYe--4" value="" style="endArrow=none;html=1;rounded=0;" parent="1" edge="1">
          <mxGeometry width="50" height="50" relative="1" as="geometry">
            <mxPoint x="171" y="886" as="sourcePoint" />
            <mxPoint x="171.32999999999998" y="858" as="targetPoint" />
          </mxGeometry>
        </mxCell>
        <mxCell id="iPpFipTJn7zkpoiMaYe--5" value="" style="endArrow=none;html=1;rounded=0;" parent="1" edge="1">
          <mxGeometry width="50" height="50" relative="1" as="geometry">
            <mxPoint x="-80" y="886" as="sourcePoint" />
            <mxPoint x="171" y="886" as="targetPoint" />
          </mxGeometry>
        </mxCell>
        <mxCell id="iPpFipTJn7zkpoiMaYe--6" value="" style="endArrow=classic;html=1;rounded=0;entryX=1;entryY=0.5;entryDx=0;entryDy=0;" parent="1" target="bY9uumYXsHetjOn1w0_e-589" edge="1">
          <mxGeometry width="50" height="50" relative="1" as="geometry">
            <mxPoint x="54" y="880" as="sourcePoint" />
            <mxPoint x="-260" y="930" as="targetPoint" />
            <Array as="points">
              <mxPoint x="54" y="940" />
            </Array>
          </mxGeometry>
        </mxCell>
        <mxCell id="iPpFipTJn7zkpoiMaYe--9" value="" style="endArrow=none;html=1;rounded=0;" parent="1" edge="1">
          <mxGeometry width="50" height="50" relative="1" as="geometry">
            <mxPoint x="-354" y="763" as="sourcePoint" />
            <mxPoint x="-354" y="734" as="targetPoint" />
          </mxGeometry>
        </mxCell>
        <mxCell id="iPpFipTJn7zkpoiMaYe--10" value="" style="endArrow=none;html=1;rounded=0;" parent="1" edge="1">
          <mxGeometry width="50" height="50" relative="1" as="geometry">
            <mxPoint x="-260" y="800" as="sourcePoint" />
            <mxPoint x="-260.17" y="773.5" as="targetPoint" />
          </mxGeometry>
        </mxCell>
        <mxCell id="iPpFipTJn7zkpoiMaYe--11" value="" style="endArrow=none;html=1;rounded=0;" parent="1" edge="1">
          <mxGeometry width="50" height="50" relative="1" as="geometry">
            <mxPoint x="-158.17000000000002" y="801.5" as="sourcePoint" />
            <mxPoint x="-157.84000000000003" y="773.5" as="targetPoint" />
          </mxGeometry>
        </mxCell>
        <mxCell id="iPpFipTJn7zkpoiMaYe--12" value="" style="endArrow=none;html=1;rounded=0;" parent="1" edge="1">
          <mxGeometry width="50" height="50" relative="1" as="geometry">
            <mxPoint x="-78" y="762" as="sourcePoint" />
            <mxPoint x="-77.67000000000003" y="734" as="targetPoint" />
          </mxGeometry>
        </mxCell>
        <mxCell id="iPpFipTJn7zkpoiMaYe--13" value="" style="endArrow=none;html=1;rounded=0;" parent="1" edge="1">
          <mxGeometry width="50" height="50" relative="1" as="geometry">
            <mxPoint x="-202" y="823" as="sourcePoint" />
            <mxPoint x="-78" y="762" as="targetPoint" />
          </mxGeometry>
        </mxCell>
        <mxCell id="iPpFipTJn7zkpoiMaYe--14" value="" style="endArrow=none;html=1;rounded=0;" parent="1" edge="1">
          <mxGeometry width="50" height="50" relative="1" as="geometry">
            <mxPoint x="-354" y="762.5" as="sourcePoint" />
            <mxPoint x="-202" y="823" as="targetPoint" />
          </mxGeometry>
        </mxCell>
        <mxCell id="iPpFipTJn7zkpoiMaYe--16" value="" style="endArrow=classic;html=1;rounded=0;entryX=1.011;entryY=0.261;entryDx=0;entryDy=0;entryPerimeter=0;" parent="1" target="bY9uumYXsHetjOn1w0_e-589" edge="1">
          <mxGeometry width="50" height="50" relative="1" as="geometry">
            <mxPoint x="-201.96" y="823" as="sourcePoint" />
            <mxPoint x="-201.96" y="873" as="targetPoint" />
          </mxGeometry>
        </mxCell>
        <mxCell id="iPpFipTJn7zkpoiMaYe--19" value="" style="endArrow=none;html=1;rounded=0;exitX=1;exitY=0.5;exitDx=0;exitDy=0;" parent="1" source="c17SYyF0Zs9dSF2ZK7In-48" edge="1">
          <mxGeometry width="50" height="50" relative="1" as="geometry">
            <mxPoint x="570" y="544.5" as="sourcePoint" />
            <mxPoint x="590" y="510" as="targetPoint" />
          </mxGeometry>
        </mxCell>
        <mxCell id="iPpFipTJn7zkpoiMaYe--20" value="" style="endArrow=none;html=1;rounded=0;" parent="1" edge="1">
          <mxGeometry width="50" height="50" relative="1" as="geometry">
            <mxPoint x="555" y="483.75" as="sourcePoint" />
            <mxPoint x="590" y="510" as="targetPoint" />
          </mxGeometry>
        </mxCell>
        <mxCell id="iPpFipTJn7zkpoiMaYe--21" value="" style="endArrow=classic;html=1;rounded=0;entryX=0.93;entryY=0.796;entryDx=0;entryDy=0;entryPerimeter=0;" parent="1" target="bY9uumYXsHetjOn1w0_e-589" edge="1">
          <mxGeometry width="50" height="50" relative="1" as="geometry">
            <mxPoint x="589" y="510.25" as="sourcePoint" />
            <mxPoint x="-490" y="840" as="targetPoint" />
            <Array as="points">
              <mxPoint x="630" y="510" />
              <mxPoint x="630" y="870" />
              <mxPoint x="630" y="980" />
              <mxPoint x="-390" y="970" />
            </Array>
          </mxGeometry>
        </mxCell>
        <mxCell id="iPpFipTJn7zkpoiMaYe--24" value="" style="endArrow=none;html=1;rounded=0;exitX=0.486;exitY=0.943;exitDx=0;exitDy=0;exitPerimeter=0;" parent="1" source="c17SYyF0Zs9dSF2ZK7In-31" edge="1">
          <mxGeometry width="50" height="50" relative="1" as="geometry">
            <mxPoint x="-216.95999999999995" y="529.5" as="sourcePoint" />
            <mxPoint x="-210" y="490" as="targetPoint" />
          </mxGeometry>
        </mxCell>
        <mxCell id="iPpFipTJn7zkpoiMaYe--25" value="" style="endArrow=none;html=1;rounded=0;exitX=0.478;exitY=0.97;exitDx=0;exitDy=0;exitPerimeter=0;" parent="1" source="c17SYyF0Zs9dSF2ZK7In-30" edge="1">
          <mxGeometry width="50" height="50" relative="1" as="geometry">
            <mxPoint x="-144.99999999999997" y="468.75" as="sourcePoint" />
            <mxPoint x="-210" y="490" as="targetPoint" />
          </mxGeometry>
        </mxCell>
        <mxCell id="iPpFipTJn7zkpoiMaYe--26" value="" style="endArrow=classic;html=1;rounded=0;entryX=1;entryY=0;entryDx=0;entryDy=0;" parent="1" target="bY9uumYXsHetjOn1w0_e-589" edge="1">
          <mxGeometry width="50" height="50" relative="1" as="geometry">
            <mxPoint x="-210" y="490" as="sourcePoint" />
            <mxPoint x="-370" y="630" as="targetPoint" />
          </mxGeometry>
        </mxCell>
        <mxCell id="c17SYyF0Zs9dSF2ZK7In-31" value="&lt;font style=&quot;font-size: 11px;&quot;&gt;Update and view profile information&lt;/font&gt;" style="rounded=1;whiteSpace=wrap;html=1;arcSize=32;" parent="1" vertex="1">
          <mxGeometry x="-375.5" y="434.5" width="194" height="30" as="geometry" />
        </mxCell>
        <mxCell id="c17SYyF0Zs9dSF2ZK7In-30" value="&lt;font style=&quot;font-size: 11px;&quot;&gt;Update password&lt;/font&gt;" style="rounded=1;whiteSpace=wrap;html=1;arcSize=32;" parent="1" vertex="1">
          <mxGeometry x="-163.16" y="434.5" width="102" height="30" as="geometry" />
        </mxCell>
        <mxCell id="GWZe_AKXVVsgh4Q6ZviH-1" value="" style="shape=rhombus;html=1;verticalLabelPosition=bottom;verticalAlignment=top;" parent="1" vertex="1">
          <mxGeometry x="-425" y="142" width="31" height="40" as="geometry" />
        </mxCell>
        <mxCell id="L7ipdybNnaFi9QW1zzCn-3" value="" style="edgeStyle=elbowEdgeStyle;html=1;elbow=vertical;verticalAlign=bottom;endArrow=open;rounded=0;labelBackgroundColor=none;endSize=10;strokeWidth=1;" edge="1" parent="1">
          <mxGeometry x="0.7651" y="86" relative="1" as="geometry">
            <mxPoint x="-589" y="161.21" as="targetPoint" />
            <mxPoint x="-632" y="160.71" as="sourcePoint" />
            <mxPoint as="offset" />
          </mxGeometry>
        </mxCell>
        <mxCell id="L7ipdybNnaFi9QW1zzCn-4" value="" style="shape=rhombus;html=1;verticalLabelPosition=bottom;verticalAlignment=top;" vertex="1" parent="1">
          <mxGeometry x="-831" y="141" width="33" height="40" as="geometry" />
        </mxCell>
        <mxCell id="L7ipdybNnaFi9QW1zzCn-7" value="" style="edgeStyle=elbowEdgeStyle;html=1;elbow=vertical;verticalAlign=bottom;endArrow=open;rounded=0;labelBackgroundColor=none;endSize=10;strokeWidth=1;" edge="1" parent="1">
          <mxGeometry x="0.7651" y="86" relative="1" as="geometry">
            <mxPoint x="-739.16" y="160.97" as="targetPoint" />
            <mxPoint x="-799" y="161" as="sourcePoint" />
            <mxPoint as="offset" />
          </mxGeometry>
        </mxCell>
        <mxCell id="L7ipdybNnaFi9QW1zzCn-6" value="&lt;span style=&quot;font-size: 11px;&quot;&gt;Login&lt;/span&gt;" style="rounded=1;whiteSpace=wrap;html=1;arcSize=32;" vertex="1" parent="1">
          <mxGeometry x="-752" y="143" width="120" height="38" as="geometry" />
        </mxCell>
        <mxCell id="L7ipdybNnaFi9QW1zzCn-9" value="" style="endArrow=none;html=1;rounded=0;" edge="1" parent="1">
          <mxGeometry width="50" height="50" relative="1" as="geometry">
            <mxPoint x="-693.1700000000001" y="143" as="sourcePoint" />
            <mxPoint x="-693.1700000000001" y="113" as="targetPoint" />
            <Array as="points">
              <mxPoint x="-693.1700000000001" y="113" />
            </Array>
          </mxGeometry>
        </mxCell>
        <mxCell id="L7ipdybNnaFi9QW1zzCn-12" value="&lt;font style=&quot;font-size: 7px;&quot;&gt;[if no]&lt;/font&gt;" style="text;html=1;align=center;verticalAlign=middle;whiteSpace=wrap;rounded=0;" vertex="1" parent="1">
          <mxGeometry x="-831" y="80" width="56" height="12" as="geometry" />
        </mxCell>
        <mxCell id="L7ipdybNnaFi9QW1zzCn-13" value="&lt;font style=&quot;font-size: 7px;&quot;&gt;[if user registered]&lt;/font&gt;" style="text;html=1;align=center;verticalAlign=middle;whiteSpace=wrap;rounded=0;" vertex="1" parent="1">
          <mxGeometry x="-892" y="142" width="70" height="12" as="geometry" />
        </mxCell>
        <mxCell id="L7ipdybNnaFi9QW1zzCn-14" value="&lt;font style=&quot;font-size: 7px;&quot;&gt;[if yes]&lt;/font&gt;" style="text;html=1;align=center;verticalAlign=middle;whiteSpace=wrap;rounded=0;" vertex="1" parent="1">
          <mxGeometry x="-808" y="146" width="56" height="12" as="geometry" />
        </mxCell>
        <mxCell id="L7ipdybNnaFi9QW1zzCn-15" value="" style="edgeStyle=elbowEdgeStyle;html=1;elbow=vertical;verticalAlign=bottom;endArrow=open;rounded=0;labelBackgroundColor=none;endSize=10;strokeWidth=1;" edge="1" parent="1">
          <mxGeometry x="0.7651" y="86" relative="1" as="geometry">
            <mxPoint x="-815" y="55" as="targetPoint" />
            <mxPoint x="-814.7" y="141" as="sourcePoint" />
            <mxPoint as="offset" />
            <Array as="points" />
          </mxGeometry>
        </mxCell>
        <mxCell id="L7ipdybNnaFi9QW1zzCn-1" value="&lt;span style=&quot;font-size: 11px;&quot;&gt;Registeration&lt;/span&gt;" style="rounded=1;whiteSpace=wrap;html=1;arcSize=32;" vertex="1" parent="1">
          <mxGeometry x="-874.5" y="42" width="120" height="38" as="geometry" />
        </mxCell>
        <mxCell id="L7ipdybNnaFi9QW1zzCn-16" value="&lt;font style=&quot;font-size: 7px;&quot;&gt;[Return to Login]&lt;/font&gt;" style="text;html=1;align=center;verticalAlign=middle;whiteSpace=wrap;rounded=0;" vertex="1" parent="1">
          <mxGeometry x="-801" y="245.5" width="56" height="12" as="geometry" />
        </mxCell>
        <mxCell id="L7ipdybNnaFi9QW1zzCn-17" value="" style="edgeStyle=elbowEdgeStyle;html=1;elbow=vertical;verticalAlign=bottom;endArrow=open;rounded=0;labelBackgroundColor=none;endSize=10;strokeWidth=1;exitX=0;exitY=0.5;exitDx=0;exitDy=0;entryX=0.998;entryY=0.531;entryDx=0;entryDy=0;entryPerimeter=0;" edge="1" parent="1" source="c17SYyF0Zs9dSF2ZK7In-5" target="c17SYyF0Zs9dSF2ZK7In-6">
          <mxGeometry x="0.7651" y="86" relative="1" as="geometry">
            <mxPoint x="-482" y="260.71" as="targetPoint" />
            <mxPoint x="-412" y="261.21" as="sourcePoint" />
            <mxPoint as="offset" />
          </mxGeometry>
        </mxCell>
      </root>
    </mxGraphModel>
  </diagram>
</mxfile>
